<?xml version="1.0" encoding="UTF-8" standalone="no"?>
<svg
   xmlns:dc="http://purl.org/dc/elements/1.1/"
   xmlns:cc="http://creativecommons.org/ns#"
   xmlns:rdf="http://www.w3.org/1999/02/22-rdf-syntax-ns#"
   xmlns:svg="http://www.w3.org/2000/svg"
   xmlns="http://www.w3.org/2000/svg"
   xmlns:sodipodi="http://sodipodi.sourceforge.net/DTD/sodipodi-0.dtd"
   xmlns:inkscape="http://www.inkscape.org/namespaces/inkscape"
   viewBox="0 0 64 64"
   version="1.1"
   id="svg50"
   sodipodi:docname="fetish_clit_others.svg"
   inkscape:version="0.92.3 (2405546, 2018-03-11)">
  <metadata
     id="metadata56">
    <rdf:RDF>
      <cc:Work
         rdf:about="">
        <dc:format>image/svg+xml</dc:format>
        <dc:type
           rdf:resource="http://purl.org/dc/dcmitype/StillImage" />
        <dc:title />
      </cc:Work>
    </rdf:RDF>
  </metadata>
  <defs
     id="defs54">
    <clipPath
       clipPathUnits="userSpaceOnUse"
       id="clipPath71">
      <rect
         style="fill:#ff8080;fill-opacity:1"
         id="rect73"
         width="260"
         height="310"
         x="-1718.2833"
         y="-124.30827" />
    </clipPath>
  </defs>
  <sodipodi:namedview
     pagecolor="#ffffff"
     bordercolor="#666666"
     borderopacity="1"
     objecttolerance="10"
     gridtolerance="10"
     guidetolerance="10"
     inkscape:pageopacity="0"
     inkscape:pageshadow="2"
     inkscape:window-width="1920"
     inkscape:window-height="1138"
     id="namedview52"
     showgrid="false"
     inkscape:zoom="11.313708"
     inkscape:cx="19.841674"
     inkscape:cy="14.65765"
     inkscape:window-x="-8"
     inkscape:window-y="-8"
     inkscape:window-maximized="1"
     inkscape:current-layer="g955" />
  <g
     id="g955"
     transform="translate(2.2834041,-3.691716)">
    <path
       transform="translate(-2.2834041,3.691716)"
       style="fill:#ffaaee;fill-opacity:1;fill-rule:evenodd;stroke:#000000;stroke-width:0.44999999;stroke-linecap:butt;stroke-linejoin:round;stroke-miterlimit:4;stroke-dasharray:none"
       d="m 29.392578,14.326172 c -0.604885,-0.01372 -1.221732,0.142517 -1.8125,0.363281 -2.2942,0.54947 -4.216309,2.069077 -5.310547,4.136719 -1.864095,3.522343 -3.459782,7.265637 -4.318359,11.310547 -1.1841,5.311065 -1.701134,10.718828 -1.839844,16.072265 -2.19e-4,0.002 2.2e-4,0.0058 0,0.0078 -0.08094,0.734626 -0.189419,1.723788 0.05078,2.876953 0.240852,1.156295 1.103165,2.649858 2.609375,3.259766 a 2.2476997,2.2476997 0 0 0 0.28125,0.0918 c 2.22864,0.575517 4.142863,0.0137 5.751954,-0.52539 0.908583,0.248136 1.771037,0.271861 2.529296,0.144531 0.556601,-0.09347 1.0758,-0.235866 1.578125,-0.447265 0.435838,-0.183419 0.892238,-0.459226 1.384766,-1.021485 0.05957,-0.01179 0.35367,-0.06444 0.556641,-0.0957 0.473917,0.07555 1.030922,0.243638 1.496093,0.464844 0.725502,0.377485 1.4722,0.906043 2.558594,1.318359 0.811372,0.307938 1.921697,0.299242 3.007813,0.04102 1.088905,0.347422 2.221811,0.700085 3.539062,0.765625 a 2.2476997,2.2476997 0 0 0 0.640625,-0.06055 c 1.675481,-0.406009 2.829544,-1.731745 3.359375,-2.927735 0.529231,-1.194634 0.661151,-2.348538 0.726563,-3.283203 0.89033,-7.699022 1.263259,-16.133421 -2.115235,-23.884765 l -0.002,-0.0039 c -1.20064,-2.76754 -2.87706,-6.626907 -6.898437,-8.113282 -0.682307,-0.278817 -1.522988,-0.357162 -2.203125,-0.179687 -0.303906,0.0793 -0.434196,0.229165 -0.66211,0.351562 -0.289674,0.0466 -1.1505,0.178453 -1.384765,0.191407 -0.256604,-0.04603 -0.690731,-0.0487 -1.085938,-0.05859 -0.676775,-0.414528 -1.45135,-0.772612 -2.4375,-0.794922 z m 0.0918,4.417969 a 2.2476997,2.2476997 0 0 0 0.07227,0.08984 c -0.0064,-0.01857 -0.193302,-0.24149 -0.08008,-0.08398 z"
       id="path1033" />
    <g
       style="fill-rule:evenodd;stroke-width:0.85600001"
       id="g8"
       transform="translate(-2.2834041,3.691716)">
      <path
         style="fill:#ff00cc;stroke:#000000"
         inkscape:connector-curvature="0"
         id="path4"
         transform="matrix(0.29027,-0.05863,0.06637,0.28051,-68.751,-277.477)"
         d="m 7.862,1015.051 c -0.024,-14.737 19.915,-15.62 24.403,-6.885 3.668,-8.902 24.456,-9.123 24.398,7.059 -0.041,11.62 -12.317,22.903 -24.45,36.117 -12.07,-12.803 -24.331,-24.22 -24.35,-36.29 z" />
      <path
         style="fill:#ffffff"
         inkscape:connector-curvature="0"
         id="path6"
         d="m 10.144,1.855 c 0.864,-0.515 2.036,-0.49 3.08,0.094 A 4.034,4.034 0 0 1 14.62,4.596 C 14.29,3.548 13.6,2.828 12.859,2.449 12.117,1.822 11.096,1.529 10.144,1.855 Z" />
    </g>
    <g
       style="fill-rule:evenodd;stroke-width:1.17400002"
       id="g14"
       transform="translate(-2.2834041,3.691716)">
      <path
         style="fill:#ff00cc;stroke:#000000"
         inkscape:connector-curvature="0"
         id="path10"
         transform="matrix(0.19787,0.08633,-0.07763,0.19528,130.359,-145.729)"
         d="m 7.862,1015.051 c -0.024,-14.737 19.915,-15.62 24.403,-6.885 3.668,-8.902 24.456,-9.123 24.398,7.059 -0.041,11.62 -12.317,22.903 -24.45,36.117 -12.07,-12.803 -24.331,-24.22 -24.35,-36.29 z" />
      <path
         style="fill:#ffffff"
         inkscape:connector-curvature="0"
         id="path12"
         d="m 60.701,54.076 c 0.732,0.054 1.421,0.558 1.8,1.344 a 2.94,2.94 0 0 1 -0.272,2.165 c 0.24,-0.765 0.13,-1.483 -0.154,-2.02 -0.182,-0.684 -0.668,-1.286 -1.374,-1.49 z" />
    </g>
    <g
       style="fill-rule:evenodd;stroke-width:1.61099994"
       id="g20"
       transform="translate(-2.2834041,3.691716)">
      <path
         style="fill:#ff00cc;stroke:#000000"
         inkscape:connector-curvature="0"
         id="path16"
         transform="matrix(0.1198,-0.10206,0.10314,0.11327,-61.847,-53.817)"
         d="m 7.862,1015.051 c -0.024,-14.737 19.915,-15.62 24.403,-6.885 3.668,-8.902 24.456,-9.123 24.398,7.059 -0.041,11.62 -12.317,22.903 -24.45,36.117 -12.07,-12.803 -24.331,-24.22 -24.35,-36.29 z" />
      <path
         style="fill:#ffffff"
         inkscape:connector-curvature="0"
         id="path18"
         d="m 46.807,55.678 c 0.27,-0.463 0.82,-0.753 1.456,-0.75 0.517,0.102 0.996,0.4 1.331,0.87 a 1.908,1.908 0 0 0 -1.372,-0.544 c -0.506,-0.1 -1.056,0.026 -1.415,0.424 z" />
    </g>
    <g
       style="fill-rule:evenodd;stroke-width:1.17400002"
       id="g26"
       transform="translate(-2.2834041,3.691716)">
      <path
         style="fill:#ff00cc;stroke:#000000"
         inkscape:connector-curvature="0"
         id="path22"
         transform="matrix(0.19787,0.08633,-0.07763,0.19528,79.34,-181.134)"
         d="m 7.862,1015.051 c -0.024,-14.737 19.915,-15.62 24.403,-6.885 3.668,-8.902 24.456,-9.123 24.398,7.059 -0.041,11.62 -12.317,22.903 -24.45,36.117 -12.07,-12.803 -24.331,-24.22 -24.35,-36.29 z" />
      <path
         style="fill:#ffffff"
         inkscape:connector-curvature="0"
         id="path24"
         d="m 9.682,18.671 c 0.731,0.054 1.42,0.559 1.8,1.344 a 2.94,2.94 0 0 1 -0.273,2.165 c 0.24,-0.764 0.13,-1.482 -0.154,-2.019 -0.181,-0.684 -0.668,-1.287 -1.373,-1.49 z" />
    </g>
    <g
       style="fill-rule:evenodd;stroke-width:1.61099994"
       id="g32"
       transform="translate(-2.2834041,3.691716)">
      <path
         style="fill:#ff00cc;stroke:#000000"
         inkscape:connector-curvature="0"
         id="path28"
         transform="matrix(0.14636,0.05786,-0.05158,0.14425,69.504,-144.856)"
         d="m 7.862,1015.051 c -0.024,-14.737 19.915,-15.62 24.403,-6.885 3.668,-8.902 24.456,-9.123 24.398,7.059 -0.041,11.62 -12.317,22.903 -24.45,36.117 -12.07,-12.803 -24.331,-24.22 -24.35,-36.29 z" />
      <path
         style="fill:#ffffff"
         inkscape:connector-curvature="0"
         id="path30"
         d="m 23.846,2.488 c 0.535,0.02 1.05,0.37 1.346,0.933 A 2.144,2.144 0 0 1 25.049,5.005 1.908,1.908 0 0 0 24.885,3.538 c -0.15,-0.494 -0.52,-0.92 -1.039,-1.05 z" />
    </g>
    <g
       style="fill-rule:evenodd;stroke-width:1.98800004"
       id="g38"
       transform="translate(-2.2834041,3.691716)">
      <path
         style="fill:#ff00cc;stroke:#000000"
         inkscape:connector-curvature="0"
         id="path34"
         transform="matrix(0.11671,-0.05127,0.05363,0.1119,1.175,-66.304)"
         d="m 7.862,1015.051 c -0.024,-14.737 19.915,-15.62 24.403,-6.885 3.668,-8.902 24.456,-9.123 24.398,7.059 -0.041,11.62 -12.317,22.903 -24.45,36.117 -12.07,-12.803 -24.331,-24.22 -24.35,-36.29 z" />
      <path
         style="fill:#ffffff"
         inkscape:connector-curvature="0"
         id="path36"
         d="m 59.961,43.95 c 0.317,-0.295 0.812,-0.392 1.305,-0.242 0.376,0.2 0.68,0.542 0.83,0.985 a 1.546,1.546 0 0 0 -0.938,-0.741 c -0.37,-0.196 -0.826,-0.226 -1.197,-0.002 z" />
    </g>
    <path
       sodipodi:nodetypes="ccccc"
       d="m 30.797941,52.397557 c -0.335035,-1.374208 -0.46911,-7.27266 -1.033699,-10.877137 -1.117786,3.776467 -1.768946,5.180918 -2.99356,10.772665 l 1.858919,-0.39038 z"
       id="path919"
       inkscape:connector-curvature="0"
       style="fill:#333333;fill-opacity:1;fill-rule:evenodd;stroke:#000000;stroke-width:0.44999999;stroke-linecap:butt;stroke-linejoin:round;stroke-miterlimit:4;stroke-dasharray:none" />
    <path
       style="fill:#808080;fill-opacity:1;fill-rule:evenodd;stroke:#000000;stroke-width:0.49900052;stroke-linejoin:round;stroke-miterlimit:4;stroke-dasharray:none"
       d="m 28.629763,51.902702 c 3.749376,-0.05806 6.965106,2.45106 10.652318,2.634517 1.836739,-0.445086 2.261211,-2.569884 2.374224,-4.187609 0.884465,-7.605006 1.191846,-15.658957 -1.934866,-22.829649 -1.187893,-2.738124 -2.664815,-5.863443 -5.674699,-6.939032 -1.880105,-0.797361 -2.308981,2.797575 -4.277885,1.232311 -1.077067,-1.075964 -2.243291,-1.993906 -3.823541,-1.31844 -1.700813,0.359519 -3.135775,1.490686 -3.973176,3.073016 -1.805618,3.411847 -3.310226,6.9683 -4.108893,10.738073 -1.159775,5.19687 -1.671696,10.528587 -1.800335,15.840858 -0.147542,1.339223 -0.234083,3.206412 1.269198,3.815134 2.590772,0.669033 5.04019,-0.804262 7.494379,-1.395011 1.236389,-0.362912 2.509224,-0.648907 3.803276,-0.664168 z"
       id="path959"
       inkscape:connector-curvature="0"
       sodipodi:nodetypes="cccccccsccccc" />
    <path
       sodipodi:nodetypes="cscccccccsaccccccc"
       inkscape:connector-curvature="0"
       id="path921"
       d="m 34.976706,54.125067 c 1.214161,-0.266605 1.177804,-1.324495 1.154663,-2.735299 -0.06514,-3.971423 -0.968396,-7.810299 -1.821992,-11.662245 -0.258912,-1.185065 -0.72884,-1.633998 -1.16055,-2.649681 0.424426,-0.654735 0.644527,-1.453763 0.971851,-2.320695 0.590609,-1.432116 0.120972,-3.059495 -0.562327,-4.369814 -0.505418,-0.864712 -1.496457,-1.767799 -2.56831,-1.422776 -1.191124,0.112252 -2.196422,0.834002 -2.87716,1.783092 -0.879838,1.410859 -0.867411,3.481148 -0.60387,5.077077 -0.646963,1.152625 -1.30528,1.385377 -1.73732,2.48587 -0.684017,1.74233 -0.807746,2.41762 -1.130168,3.649686 -0.846072,3.233076 -1.427363,6.336882 -2.105756,9.802213 -0.121174,1.377889 -0.198035,2.475996 1.001162,2.113323 1.191514,-0.43802 2.113658,0.03772 2.871762,-1.068503 0.558489,-0.888147 1.388507,-2.712128 1.947709,-3.597932 0.425225,-0.494979 0.507244,0.627921 1.152186,0.569404 0.773486,0.723782 0.710987,2.085406 1.53611,2.85155 1.140353,0.777325 2.478109,1.693949 3.93201,1.49473 z"
       style="fill:#666666;fill-opacity:1;fill-rule:evenodd;stroke:#000000;stroke-width:0.44999999;stroke-linecap:butt;stroke-linejoin:round;stroke-miterlimit:4;stroke-dasharray:none" />
    <path
       style="fill:#666666;fill-opacity:1;fill-rule:evenodd;stroke:#000000;stroke-width:0.44910046;stroke-linecap:round;stroke-linejoin:bevel;stroke-miterlimit:4;stroke-dasharray:none;paint-order:normal"
       d="m 28.948994,21.028373 c 0.266685,0.266549 0.392973,0.903229 0.357554,1.225761 -0.459888,4.187805 -2.671492,7.325309 -3.216164,11.624244 -0.401271,1.749749 -0.636643,3.467769 -0.602091,5.271769 -0.146981,2.22664 -1.624914,2.660315 1.018696,1.802592 1.230692,-0.274121 2.385202,-1.062414 3.682609,-0.919421 1.013045,0.159178 1.951397,0.949851 3.007634,0.689642 2.472209,3.212704 0.06629,0.552427 1.582243,-1.771657 1.169572,-2.564379 1.383737,-6.083027 0.599142,-8.800215 -0.706541,-2.796973 -2.616909,-5.312712 -2.963264,-8.215128 -0.03566,-0.298821 -0.102213,-0.732449 0.244624,-1.080257 0,0 -1.299108,0.2383 -1.956783,0.265281 -0.585056,0.024 0.08004,-0.09261 -1.7542,-0.09261 z"
       id="path885"
       inkscape:connector-curvature="0"
       sodipodi:nodetypes="cscccccccscac" />
    <path
       style="fill:#666666;fill-opacity:1;fill-rule:evenodd;stroke:#000000;stroke-width:0.40000001;stroke-linecap:butt;stroke-linejoin:round;stroke-miterlimit:4;stroke-dasharray:none"
       d="m 34.976706,54.125067 c 1.214161,-0.266605 1.177804,-1.324495 1.154663,-2.735299 -0.06514,-3.971423 -0.968396,-7.810299 -1.821992,-11.662245 -0.258912,-1.185065 -0.72884,-1.633998 -1.16055,-2.649681 0.424426,-0.654735 0.644527,-1.453763 0.971851,-2.320695 0.590609,-1.432116 0.120972,-3.059495 -0.562327,-4.369814 -0.505418,-0.864712 -1.496457,-1.767799 -2.56831,-1.422776 -1.191124,0.112252 -2.196422,0.834002 -2.87716,1.783092 -0.879838,1.410859 -0.867411,3.481148 -0.60387,5.077077 -0.646963,1.152625 -1.30528,1.385377 -1.73732,2.48587 -0.684017,1.74233 -0.807746,2.41762 -1.130168,3.649686 -0.846072,3.233076 -1.427363,6.336882 -2.105756,9.802213 -0.121174,1.377889 -0.198035,2.475996 1.001162,2.113323 1.191514,-0.43802 2.113658,0.03772 2.871762,-1.068503 0.558489,-0.888147 1.388507,-2.712128 1.947709,-3.597932 0.425225,-0.494979 0.507244,0.627921 1.152186,0.569404 0.773486,0.723782 0.710987,2.085406 1.53611,2.85155 1.140353,0.777325 2.478109,1.693949 3.93201,1.49473 z"
       id="path46"
       inkscape:connector-curvature="0"
       sodipodi:nodetypes="cscccccccsaccccccc" />
    <path
       sodipodi:nodetypes="ccsccccsccc"
       d="m 27.624733,35.224539 c 0.01027,0.190559 -0.006,0.301764 0.236013,0.565394 0.103707,0.107016 1.445638,0.710251 2.690835,0.995175 1.004178,0.229774 1.945445,0.167547 2.123661,0.127221 0.345084,-0.066 0.433534,-0.263063 0.632137,-0.525324 l -0.249322,0.969988 c -0.04393,-0.08078 -0.126614,-0.204745 -0.251289,-0.251678 -0.422986,-0.118748 -1.21776,0.03613 -2.286449,-0.180317 -0.821561,-0.166394 -2.199629,-0.613242 -2.446354,-0.752859 -0.395791,-0.118107 -0.481514,0.03412 -0.651838,0.163083 -0.190786,-0.498632 0.179671,-1.0197 0.202606,-1.110683 z"
       id="path48"
       inkscape:connector-curvature="0"
       style="fill-rule:evenodd;stroke-width:1.90847683;stroke-miterlimit:4;stroke-dasharray:none" />
    <path
       style="fill:#333333;fill-opacity:1;fill-rule:evenodd;stroke:#000000;stroke-width:0.32453084;stroke-linecap:butt;stroke-linejoin:round;stroke-miterlimit:4;stroke-dasharray:none"
       inkscape:connector-curvature="0"
       id="path883"
       d="m 30.797941,52.397557 c -0.335035,-1.374208 -0.46911,-7.27266 -1.033699,-10.877137 -1.117786,3.776467 -1.768946,5.180918 -2.99356,10.772665 l 1.858919,-0.39038 z"
       sodipodi:nodetypes="ccccc" />
    <path
       style="fill-rule:evenodd;stroke-width:1.90847683;stroke-miterlimit:4;stroke-dasharray:none"
       inkscape:connector-curvature="0"
       id="path898"
       d="m 29.633832,41.402726 c 0.283454,-1.194202 0.738039,-2.690415 0.821531,-4.389348 -0.0639,1.839122 -0.252784,3.186123 -0.39917,4.163259 -0.09706,0.647871 -0.07202,0.466987 -0.03629,0.956353 z"
       sodipodi:nodetypes="ccscc" />
    <path
       sodipodi:nodetypes="ccccc"
       d="m 28.550867,51.844415 c 0.63712,-2.728186 1.030637,-7.803219 1.174352,-10.107983 0.01008,2.316012 -0.49047,7.251769 -0.973834,10.147438 -0.04507,0.05163 -0.117591,-0.04241 -0.200514,-0.03946 z"
       id="path900"
       inkscape:connector-curvature="0"
       style="fill-rule:evenodd;stroke-width:1.5803436;stroke-miterlimit:4;stroke-dasharray:none" />
    <path
       style="fill-rule:evenodd;stroke-width:1.5803436;stroke-miterlimit:4;stroke-dasharray:none"
       inkscape:connector-curvature="0"
       id="path917"
       d="m 22.125862,53.151264 c 0.125401,-0.06022 0.100949,-0.318844 0.131383,-0.561108 0.135082,0.499605 0.03297,0.193176 0.04179,0.674782 -0.06451,-0.0219 -0.250866,0.0401 -0.317705,0.02695 z"
       sodipodi:nodetypes="ccccc" />
  </g>
</svg>
