<?xml version="1.0" encoding="UTF-8" standalone="no"?>
<svg
   xmlns:dc="http://purl.org/dc/elements/1.1/"
   xmlns:cc="http://creativecommons.org/ns#"
   xmlns:rdf="http://www.w3.org/1999/02/22-rdf-syntax-ns#"
   xmlns:svg="http://www.w3.org/2000/svg"
   xmlns="http://www.w3.org/2000/svg"
   xmlns:sodipodi="http://sodipodi.sourceforge.net/DTD/sodipodi-0.dtd"
   xmlns:inkscape="http://www.inkscape.org/namespaces/inkscape"
   viewBox="0 0 64 64"
   version="1.1"
   id="svg12"
   sodipodi:docname="alchemist.svg"
   inkscape:version="0.92.3 (2405546, 2018-03-11)">
  <metadata
     id="metadata18">
    <rdf:RDF>
      <cc:Work
         rdf:about="">
        <dc:format>image/svg+xml</dc:format>
        <dc:type
           rdf:resource="http://purl.org/dc/dcmitype/StillImage" />
        <dc:title></dc:title>
      </cc:Work>
    </rdf:RDF>
  </metadata>
  <defs
     id="defs16" />
  <sodipodi:namedview
     pagecolor="#ffffff"
     bordercolor="#666666"
     borderopacity="1"
     objecttolerance="10"
     gridtolerance="10"
     guidetolerance="10"
     inkscape:pageopacity="0"
     inkscape:pageshadow="2"
     inkscape:window-width="1680"
     inkscape:window-height="1028"
     id="namedview14"
     showgrid="false"
     inkscape:zoom="10.429825"
     inkscape:cx="53.977757"
     inkscape:cy="31.104832"
     inkscape:window-x="1912"
     inkscape:window-y="142"
     inkscape:window-maximized="1"
     inkscape:current-layer="svg12" />
  <path
     sodipodi:type="inkscape:offset"
     inkscape:radius="1.3926781"
     inkscape:original="M 31.777344 6.5507812 C 30.936692 6.5507812 30.107602 6.5970103 29.279297 6.6914062 C 23.430523 7.3515499 24.990081 13.764355 28.207031 13.859375 L 28.302734 18.103516 C 19.628225 19.80353 22.84408 36.966258 24.890625 52.054688 C 24.895525 52.056987 24.903293 52.058247 24.908203 52.060547 C 25.098371 53.251242 25.289058 54.387183 25.574219 56.960938 C 29.961424 57.714852 34.44496 57.525373 38.929688 56.865234 C 39.116811 55.327448 39.305062 53.864692 39.492188 52.25 C 39.499787 52.2477 39.508005 52.246441 39.515625 52.244141 C 41.46605 38.097311 43.903287 19.707635 35.615234 18.009766 L 35.419922 18.011719 L 35.419922 13.763672 C 39.026957 13.669902 39.515031 7.3515499 34.347656 6.6914062 C 33.469965 6.5970103 32.617996 6.5507812 31.777344 6.5507812 z "
     style="fill:#ffd5d5;fill-opacity:1;fill-rule:evenodd;stroke:none;stroke-width:0.66500002;stroke-miterlimit:4;stroke-dasharray:none"
     id="path863"
     d="m 31.777344,5.1582031 c -0.89171,0 -1.774891,0.049949 -2.65625,0.1503907 l 0.002,-0.00195 c -1.718758,0.1939941 -3.080775,0.8534918 -3.966797,1.8378906 -0.886022,0.9843989 -1.246656,2.2337956 -1.205078,3.3925778 0.04158,1.158783 0.451203,2.256976 1.162109,3.132813 0.438039,0.539664 1.048362,0.933728 1.722657,1.216797 l 0.05078,2.240234 c -2.004198,0.766883 -3.495225,2.332627 -4.345703,4.332031 -1.009498,2.373244 -1.344781,5.301296 -1.357422,8.59375 -0.02528,6.584909 1.306505,14.671821 2.326172,22.189454 a 1.3928174,1.3928174 0 0 0 0.04492,0.197265 c 0.184539,1.152497 0.361506,2.209448 0.634765,4.675781 a 1.3928174,1.3928174 0 0 0 1.148438,1.21875 c 4.581678,0.787333 9.215873,0.582226 13.794921,-0.0918 A 1.3928174,1.3928174 0 0 0 40.3125,57.033203 c 0.176467,-1.450216 0.354848,-2.85362 0.533203,-4.376953 a 1.3928174,1.3928174 0 0 0 0.04883,-0.222656 c 0.975644,-7.076546 2.090424,-15.249137 1.902344,-22.013672 -0.09404,-3.382268 -0.498907,-6.417934 -1.515625,-8.867188 -0.885859,-2.134017 -2.402653,-3.815355 -4.46875,-4.576172 v -2.173828 c 0.714488,-0.279581 1.357451,-0.676202 1.792969,-1.24414 0.697856,-0.910041 1.010645,-2.040303 0.960937,-3.179688 C 39.46699,8.1001375 37.666602,5.7120931 34.523438,5.3105469 a 1.3928174,1.3928174 0 0 0 -0.02734,-0.00391 C 33.571198,5.2071678 32.669053,5.1582031 31.777344,5.1582031 Z" />
  <g
     id="g861"
     transform="matrix(1.2502722,0,0,1.2502722,21.091381,-9.5376983)"
     style="stroke-width:0.53188418;stroke-miterlimit:4;stroke-dasharray:none">
    <path
       style="fill:#ff5555;fill-rule:evenodd;stroke:#000000;stroke-width:0.53188418;stroke-miterlimit:4;stroke-dasharray:none"
       inkscape:connector-curvature="0"
       d="m 3.03956,49.189289 c 0.156,0.98 0.312,1.886 0.546,3.998 3.509,0.603 7.095,0.452 10.682,-0.076 0.156,-1.282 0.312,-2.489 0.468,-3.847 z"
       id="path2-7" />
    <path
       style="fill:#ffaaaa;fill-opacity:1;fill-rule:evenodd;stroke:#000000;stroke-width:0.53188418;stroke-miterlimit:4;stroke-dasharray:none"
       inkscape:connector-curvature="0"
       d="m 14.73556,49.415289 c 1.56,-11.315 3.51,-26.024 -3.119,-27.382 l -5.848,0.075 c -6.94,1.358 -4.367,15.087 -2.73,27.156 2.106,0.98 7.642,1.358 11.697,0.151 z"
       id="path4-4" />
    <path
       style="fill:#ff5555;fill-rule:evenodd;stroke:#000000;stroke-width:0.53188418;stroke-miterlimit:4;stroke-dasharray:none"
       inkscape:connector-curvature="0"
       d="m 5.76856,22.184289 -0.078,-3.47 5.77,-0.151 v 3.545 z"
       id="path6-9" />
    <path
       style="fill:#ffaaaa;fill-opacity:1;fill-rule:evenodd;stroke:#000000;stroke-width:0.53188418;stroke-miterlimit:4;stroke-dasharray:none"
       inkscape:connector-curvature="0"
       d="m 5.69056,18.714289 c -2.573,-0.076 -3.82,-5.205 0.858,-5.733 1.325,-0.151 2.65,-0.151 4.054,0 4.133,0.528 3.743,5.582 0.858,5.657 -1.95,0.076 -3.82,0.151 -5.77,0.076 z"
       id="path8-9" />
  </g>
</svg>
