<?xml version="1.0" encoding="UTF-8" standalone="no"?>
<svg
   xmlns:dc="http://purl.org/dc/elements/1.1/"
   xmlns:cc="http://creativecommons.org/ns#"
   xmlns:rdf="http://www.w3.org/1999/02/22-rdf-syntax-ns#"
   xmlns:svg="http://www.w3.org/2000/svg"
   xmlns="http://www.w3.org/2000/svg"
   xmlns:xlink="http://www.w3.org/1999/xlink"
   xmlns:sodipodi="http://sodipodi.sourceforge.net/DTD/sodipodi-0.dtd"
   xmlns:inkscape="http://www.inkscape.org/namespaces/inkscape"
   viewBox="0 0 64 64"
   version="1.1"
   id="svg12"
   sodipodi:docname="arcaneWeaponsmith.svg"
   inkscape:version="0.92.3 (2405546, 2018-03-11)">
  <metadata
     id="metadata18">
    <rdf:RDF>
      <cc:Work
         rdf:about="">
        <dc:format>image/svg+xml</dc:format>
        <dc:type
           rdf:resource="http://purl.org/dc/dcmitype/StillImage" />
        <dc:title></dc:title>
      </cc:Work>
    </rdf:RDF>
  </metadata>
  <defs
     id="defs16">
    <linearGradient
       gradientTransform="matrix(0.11751512,0.11751512,0.11751512,-0.11751512,1.7307383,31.621244)"
       id="linearGradient1322"
       x1="50.580002"
       x2="51.070999"
       y1="206.491"
       y2="206.045"
       gradientUnits="userSpaceOnUse"
       xlink:href="#innoGrad4" />
    <linearGradient
       id="innoGrad4">
      <stop
         offset="0"
         stop-color="#ffb380"
         id="stop19" />
      <stop
         offset="1"
         stop-color="#fca"
         id="stop21" />
    </linearGradient>
    <linearGradient
       gradientTransform="matrix(0.11751512,0.11751512,0.11751512,-0.11751512,1.7307383,31.621244)"
       id="linearGradient1314"
       x1="42.455002"
       x2="43.348"
       y1="214.214"
       y2="213.321"
       gradientUnits="userSpaceOnUse"
       xlink:href="#innoGrad4" />
    <linearGradient
       gradientTransform="matrix(0.11751512,0.11751512,0.11751512,-0.11751512,1.7307383,31.621244)"
       id="linearGradient1306"
       x1="40.044998"
       x2="40.938"
       y1="216.759"
       y2="215.77699"
       gradientUnits="userSpaceOnUse"
       xlink:href="#innoGrad4" />
    <linearGradient
       gradientTransform="matrix(0.11751512,0.11751512,0.11751512,-0.11751512,1.7307383,31.621244)"
       id="linearGradient1292"
       x1="37.633999"
       x2="38.214001"
       y1="219.17"
       y2="218.589"
       gradientUnits="userSpaceOnUse"
       xlink:href="#innoGrad4" />
    <linearGradient
       gradientTransform="matrix(0.11751512,0.11751512,0.11751512,-0.11751512,1.7307383,31.621244)"
       id="linearGradient1284"
       x1="30"
       x2="30.714001"
       y1="226.179"
       y2="225.42"
       gradientUnits="userSpaceOnUse"
       xlink:href="#innoGrad4" />
    <linearGradient
       gradientTransform="matrix(0.11751512,0.11751512,0.11751512,-0.11751512,1.7307383,31.621244)"
       id="linearGradient1242"
       x1="86.619003"
       x2="85.723"
       y1="171.39101"
       y2="170.494"
       gradientUnits="userSpaceOnUse"
       xlink:href="#innoGrad2" />
    <linearGradient
       id="innoGrad2">
      <stop
         offset="0"
         stop-color="#ff2a2a"
         id="stop29" />
      <stop
         offset="1"
         stop-color="#f55"
         id="stop31" />
    </linearGradient>
    <linearGradient
       gradientTransform="matrix(0.11751512,0.11751512,0.11751512,-0.11751512,1.7307383,31.621244)"
       id="linearGradient1232"
       x1="149.735"
       x2="147.33701"
       y1="110.117"
       y2="107.689"
       gradientUnits="userSpaceOnUse"
       xlink:href="#innoGrad1" />
    <linearGradient
       id="innoGrad1">
      <stop
         offset="0"
         stop-color="#f55"
         id="stop34" />
      <stop
         offset="1"
         stop-color="#ff8080"
         id="stop36" />
    </linearGradient>
    <linearGradient
       gradientTransform="matrix(0.11751512,0.11751512,0.11751512,-0.11751512,1.7307383,31.621244)"
       id="linearGradient1330"
       x1="27.009001"
       x2="54.820999"
       y1="229.571"
       y2="202.83"
       gradientUnits="userSpaceOnUse"
       xlink:href="#innoGrad3" />
    <linearGradient
       id="innoGrad3">
      <stop
         offset="0"
         stop-color="#f95"
         id="stop2" />
      <stop
         offset=".088"
         stop-color="#ff7f2a"
         id="stop4" />
      <stop
         offset=".265"
         stop-color="#f95"
         id="stop6" />
      <stop
         offset=".446"
         stop-color="#ff7f2a"
         id="stop8" />
      <stop
         offset=".601"
         stop-color="#ff7f2a"
         id="stop10" />
      <stop
         offset=".733"
         stop-color="#f95"
         id="stop12" />
      <stop
         offset=".863"
         stop-color="#ff7f2a"
         id="stop14" />
      <stop
         offset="1"
         stop-color="#f95"
         id="stop16" />
    </linearGradient>
    <linearGradient
       gradientTransform="matrix(0.11751512,0.11751512,0.11751512,-0.11751512,1.7307383,31.621244)"
       id="linearGradient1250"
       x1="18.120001"
       x2="21.466"
       y1="241.28999"
       y2="228.726"
       gradientUnits="userSpaceOnUse"
       xlink:href="#innoGrad5" />
    <linearGradient
       id="innoGrad5">
      <stop
         offset="0"
         stop-color="#fd5"
         id="stop24" />
      <stop
         offset="1"
         stop-color="#fea"
         id="stop26" />
    </linearGradient>
  </defs>
  <sodipodi:namedview
     pagecolor="#ffffff"
     bordercolor="#666666"
     borderopacity="1"
     objecttolerance="10"
     gridtolerance="10"
     guidetolerance="10"
     inkscape:pageopacity="0"
     inkscape:pageshadow="2"
     inkscape:window-width="1680"
     inkscape:window-height="1028"
     id="namedview14"
     showgrid="false"
     inkscape:zoom="10.429825"
     inkscape:cx="37.677973"
     inkscape:cy="32.413747"
     inkscape:window-x="1912"
     inkscape:window-y="142"
     inkscape:window-maximized="1"
     inkscape:current-layer="svg12" />
  <path
     sodipodi:type="inkscape:offset"
     inkscape:radius="1.1664169"
     inkscape:original="M 45.957031 5.9433594 C 45.625242 6.0006774 45.282986 6.1770085 44.972656 6.5097656 C 44.498123 7.0187864 44.611847 7.6121345 44.675781 8.203125 L 40.992188 14.185547 C 39.796206 13.569634 38.58574 13.056733 37.107422 12.246094 C 36.741112 12.045226 36.620153 12.315734 36.761719 12.515625 C 36.761153 12.519225 36.74955 12.517384 36.75 12.521484 C 36.76595 12.535554 36.786644 12.550313 36.802734 12.564453 C 36.820094 12.581123 36.823533 12.603018 36.845703 12.617188 C 36.870443 12.633007 36.895252 12.646199 36.919922 12.662109 C 37.783279 13.40919 38.841973 14.236556 40.105469 15.03125 C 32.262305 28.586331 24.941808 42.426875 17.404297 56.222656 C 17.086282 56.804722 17.106485 57.925718 17.1875 57.988281 C 17.25233 58.038001 18.173537 57.658676 18.603516 56.931641 C 26.720843 43.206086 34.517627 30.233455 42.611328 16.433594 C 43.83536 17.088552 45.061328 17.708104 46.335938 18.087891 C 46.345638 18.083791 46.332591 18.066937 46.337891 18.060547 C 46.637527 18.189282 46.882859 17.929281 46.521484 17.71875 C 44.886158 16.766522 43.944575 16.002852 42.861328 15.28125 L 46.070312 8.9785156 C 46.592883 8.6778009 47.181736 8.51382 47.460938 7.7460938 C 47.847459 6.6827078 46.9524 5.7714044 45.957031 5.9433594 z "
     style="fill:#ffd5d5;fill-opacity:1;fill-rule:evenodd;stroke:none;stroke-width:0.66499996;stroke-miterlimit:4;stroke-dasharray:none"
     id="path1025"
     d="m 45.757812,4.7949219 c -0.594627,0.1027245 -1.176772,0.4246416 -1.638671,0.9199219 -0.423101,0.4538508 -0.62256,1.0481668 -0.660157,1.5175781 -0.02285,0.2853445 0.01325,0.4577336 0.03516,0.6660156 l -2.935547,4.7675785 c -0.925658,-0.44822 -1.822874,-0.857856 -2.890625,-1.44336 -0.212084,-0.116297 -0.462363,-0.214179 -0.792969,-0.21289 -0.330606,0.0013 -0.754307,0.158837 -1.013672,0.458984 -0.321698,0.372281 -0.339308,0.756932 -0.265625,1.115234 -0.0013,0.0159 -0.0059,0.06442 -0.0059,0.06445 a 1.1665335,1.1665335 0 0 0 0.388672,0.748046 c 0.08783,0.07748 0.108794,0.09247 0.05469,0.04492 l -0.03906,-0.03516 c -0.147587,-0.14172 -0.193165,-0.249159 -0.16211,-0.199219 0.02825,0.04542 0.165063,0.221927 0.34961,0.357422 0.01835,0.01347 0.01546,0.02257 0.03516,0.03516 0.07495,0.04792 0.09817,0.06093 0.07031,0.04297 0.633664,0.543151 1.469481,1.131811 2.306641,1.714844 -7.661739,13.292163 -14.846767,26.824546 -22.212891,40.30664 -0.31505,0.576641 -0.367237,1.09853 -0.398437,1.556641 -0.0156,0.229056 -0.01686,0.433433 -0.0039,0.625 0.0065,0.09578 0.01474,0.18514 0.03906,0.304688 0.01216,0.05977 0.02604,0.127147 0.06641,0.232421 0.04037,0.105275 0.05679,0.271493 0.390625,0.529297 a 1.1665335,1.1665335 0 0 0 0.0039,0.002 c 0.410754,0.31502 0.626717,0.246926 0.755859,0.244141 0.129142,-0.0028 0.200315,-0.01743 0.263672,-0.03125 0.126714,-0.02765 0.212102,-0.05834 0.302734,-0.09375 0.181264,-0.07082 0.365441,-0.164391 0.56836,-0.289062 0.405837,-0.249342 0.882742,-0.617583 1.238281,-1.21875 7.935816,-13.41864 15.573889,-26.142147 23.480469,-39.609375 0.939926,0.477337 1.870606,0.978151 2.914062,1.289062 a 1.1665335,1.1665335 0 0 0 0.554688,0.02734 c 0.378282,-1.8e-5 0.761619,-0.105954 1.070312,-0.539063 0.251306,-0.352591 0.29035,-0.92204 0.126953,-1.289062 -0.163397,-0.367022 -0.414356,-0.559263 -0.644531,-0.693359 -1.192926,-0.694625 -1.921894,-1.249152 -2.738281,-1.824219 L 46.951172,9.8203125 C 47.124883,9.7330569 47.275843,9.6690305 47.529297,9.4902344 47.913628,9.2191122 48.336139,8.7508492 48.556641,8.1445312 48.885196,7.2406174 48.664956,6.2467628 48.101562,5.609375 47.538169,4.9719872 46.653897,4.6401187 45.757812,4.7949219 Z m -9.318359,6.6035161 c -0.03161,0.01022 -0.04545,0.01586 -0.07813,0.02734 0.0021,-0.0012 0.01956,-0.01173 0.01953,-0.01172 -3.87e-4,1.33e-4 0.03104,-0.0087 0.05859,-0.01562 z m -0.398437,0.205078 c -0.01488,0.01402 -0.02819,0.02569 -0.05273,0.04883 0.0084,-0.0095 0.03518,-0.03908 0.03516,-0.03906 -1.9e-5,1.5e-5 0.01595,-0.0089 0.01758,-0.0098 z m -0.242188,0.263672 c -0.0158,0.03092 -0.02714,0.05545 -0.05469,0.109374 0.0089,-0.0238 0.02932,-0.08011 0.0293,-0.08008 -1.2e-5,1.9e-5 0.02065,-0.02393 0.02539,-0.0293 z m -0.179687,0.439453 c -0.0016,0.01896 -0.0019,0.02869 -0.0039,0.05273 l -0.0059,-0.02539 c -2e-6,1.4e-5 0.0086,-0.02419 0.0098,-0.02734 z m 11.873047,5.601562 c 0.0013,0.0092 5.98e-4,-7.93e-4 0.002,0.0098 0.0044,0.03422 0.0071,0.07746 0.0078,0.130859 2.36e-4,0.01655 -0.0021,0.03376 -0.0039,0.06055 -8.8e-5,-0.07082 4.14e-4,-0.155553 -0.0059,-0.201172 z m -0.002,0.318359 c -6.51e-4,0.0059 -0.01888,0.05534 -0.02734,0.07422 0.0083,-0.0231 0.02461,-0.06652 0.02734,-0.07422 z m -0.246093,0.5625 c -0.0064,0.0272 -0.02332,0.01693 -0.02539,0.01953 0.007,-0.0058 0.02008,-0.01514 0.02539,-0.01953 z" />
  <g
     id="g1023"
     transform="matrix(0.95966923,0.55406529,-0.55406529,0.95966923,18.983918,-16.435064)"
     style="stroke-width:0.60010978;stroke-miterlimit:4;stroke-dasharray:none">
    <path
       id="path52"
       d="M 31.311264,7.822317 C 30.976565,7.3260508 30.504909,6.8934776 30.66341,6.2064842 31.032952,4.6061633 32.929139,4.708519 33.166121,6.0491313 33.306266,6.8427109 32.825376,7.2348589 32.557508,7.7699052 Z"
       style="fill:#ff5555;fill-opacity:1;fill-rule:evenodd;stroke:#000000;stroke-width:0.60010978;stroke-miterlimit:4;stroke-dasharray:none"
       inkscape:connector-curvature="0" />
    <path
       id="path54"
       d="m 31.196256,7.6545054 -0.188846,6.6730956 1.98295,0.03149 -0.356776,-6.7571199 c -0.512013,0.1493618 -0.980899,0.1253887 -1.437328,0.052529 z"
       style="fill:#ffaaaa;fill-opacity:1;fill-rule:evenodd;stroke:#000000;stroke-width:0.60010978;stroke-miterlimit:4;stroke-dasharray:none"
       inkscape:connector-curvature="0" />
    <path
       id="path58"
       d="m 30.703491,14.910594 c -0.01727,14.182547 0.510368,28.353695 0.845639,42.586539 0.0141,0.598387 0.535869,1.465179 0.627413,1.477518 0.0731,0.0096 0.622125,-0.704151 0.630116,-1.466354 0.151242,-14.43779 0.391561,-28.13359 0.489686,-42.624261 -0.864676,0.02021 -1.755676,-4.7e-4 -2.593089,0.02656 z"
       style="fill:#ffaaaa;fill-opacity:1;fill-rule:evenodd;stroke:#000000;stroke-width:0.60010978;stroke-miterlimit:4;stroke-dasharray:none"
       inkscape:connector-curvature="0" />
    <path
       inkscape:connector-curvature="0"
       id="path50"
       d="m 32.120893,13.97533 c -1.648041,-0.0153 -3.04024,0.217555 -5.015638,0.261063 -0.376912,0.0083 -0.348689,0.274993 -0.147859,0.367336 0.0012,0.0031 -0.0092,0.0062 -0.007,0.0092 0.01881,0.0038 0.04112,0.0078 0.06007,0.01159 0.02109,0.0052 0.03404,0.01972 0.05776,0.02079 0.02647,0.0012 0.05209,0.0011 0.07855,0.0024 1.329901,0.255384 2.980945,0.468763 4.867779,0.425093 1.692802,-0.0392 3.37309,-0.06096 4.939398,-0.434334 0.0057,-0.0076 -0.01281,-0.01342 -0.01159,-0.02079 0.292258,-0.03459 0.365825,-0.349686 -0.01159,-0.351164 -2.111485,-0.0078 -3.25136,-0.276501 -4.810022,-0.291096 z"
       style="fill:#ff5555;fill-opacity:1;fill-rule:evenodd;stroke:#000000;stroke-width:0.60010978;stroke-miterlimit:4;stroke-dasharray:none" />
  </g>
</svg>
